<svg width="362" height="314" viewBox="0 0 362 314" fill="none" xmlns="http://www.w3.org/2000/svg">
<mask id="mask0_484_4" style="mask-type:luminance" maskUnits="userSpaceOnUse" x="0" y="0" width="362" height="314">
<path d="M362 0H0V313.708H362V0Z" fill="white"/>
</mask>
<g mask="url(#mask0_484_4)">
<mask id="mask1_484_4" style="mask-type:luminance" maskUnits="userSpaceOnUse" x="0" y="0" width="362" height="314">
<path d="M362 0H0V313.708H362V0Z" fill="white"/>
</mask>
<g mask="url(#mask1_484_4)">
<path d="M324.632 233.836H286.074L243.47 276.387L202.897 233.836H37.368V37.3175H324.632V233.836ZM37.368 0C16.7276 0 0 16.7104 0 37.3212V233.836C0 254.444 16.7276 271.16 37.368 271.16H186.876L216.411 302.133C223.349 309.42 232.95 313.585 243.009 313.708C243.162 313.708 243.318 313.708 243.47 313.708C253.37 313.708 262.878 309.782 269.883 302.781L301.551 271.16H324.624C345.254 271.16 361.992 254.447 361.992 233.836L362 37.3212C362 16.7104 345.276 0 324.632 0H37.368Z" fill="#165DFF"/>
<path d="M139.384 119.381H139.434H139.478C150.28 119.091 157.822 111.906 157.822 101.906C157.822 91.6463 150.066 84.2001 139.387 84.2001C129.009 84.2001 121.181 91.7114 121.181 101.675C121.176 111.931 128.835 119.381 139.384 119.381Z" fill="#165DFF"/>
<path d="M222.38 119.381H222.431H222.482C233.281 119.091 240.816 111.906 240.816 101.906C240.816 91.6463 233.067 84.2001 222.384 84.2001C212.009 84.2001 204.177 91.7114 204.177 101.675C204.173 111.931 211.832 119.381 222.38 119.381Z" fill="#165DFF"/>
<path d="M287.198 123.596C282.629 119.384 274.851 119.695 270.631 124.259C246.472 150.448 211.697 164.876 176.022 163.438C143.503 162.131 113.442 148.242 91.3654 124.328C87.1517 119.772 79.3772 119.449 74.8045 123.661C70.0542 128.04 69.7533 135.464 74.1337 140.202C100.438 168.701 136.291 185.262 175.069 186.841C177.034 186.921 178.981 186.958 180.932 186.958C183.036 186.958 185.128 186.911 187.228 186.827C225.865 185.18 261.597 168.591 287.866 140.13C289.983 137.83 291.089 134.846 290.963 131.72C290.832 128.595 289.483 125.708 287.198 123.596Z" fill="#165DFF"/>
</g>
</g>
</svg>
